<svg width="1236" height="1236" viewBox="0 0 1236 1236" fill="none" xmlns="http://www.w3.org/2000/svg">
<g clip-path="url(#clip0_30_2)">
<path d="M77.25 -0.000482954L0 77.2495L169.95 315.257C177.105 325.28 186.552 333.447 197.503 339.077C208.455 344.707 220.594 347.638 232.909 347.625H238.316C248.473 347.617 258.532 349.612 267.917 353.495C277.302 357.379 285.828 363.076 293.009 370.259L499.653 576.903L297.49 781.924C262.912 771.746 226.438 769.765 190.962 776.138C155.485 782.512 121.982 797.064 93.1093 818.642C64.2368 840.219 40.7896 868.228 24.6276 900.446C8.46554 932.664 0.0333875 968.205 0 1004.25C0.0463085 1037.46 7.23089 1070.28 21.067 1100.47C34.903 1130.66 55.0673 1157.53 80.1937 1179.25C105.32 1200.97 134.821 1217.04 166.699 1226.36C198.577 1235.68 232.086 1238.04 264.956 1233.29C297.826 1228.53 329.289 1216.76 357.214 1198.78C385.138 1180.8 408.872 1157.02 426.807 1129.07C444.741 1101.12 456.458 1069.63 461.163 1036.76C465.868 1003.88 463.451 970.372 454.075 938.51L659.097 736.347L733.875 811.125L710.314 881.731C705.786 895.341 705.137 909.942 708.439 923.899C711.741 937.857 718.863 950.619 729.008 960.758L981.616 1213.37C988.773 1220.56 997.283 1226.28 1006.66 1230.17C1016.03 1234.07 1026.08 1236.08 1036.23 1236.08C1046.38 1236.08 1056.43 1234.07 1065.81 1230.17C1075.18 1226.28 1083.69 1220.56 1090.85 1213.37L1213.37 1090.85C1220.56 1083.69 1226.28 1075.18 1230.18 1065.81C1234.07 1056.43 1236.08 1046.38 1236.08 1036.23C1236.08 1026.08 1234.07 1016.03 1230.18 1006.66C1226.28 997.283 1220.56 988.773 1213.37 981.615L960.758 729.008C950.62 718.863 937.857 711.74 923.9 708.438C909.942 705.137 895.341 705.786 881.731 710.313L811.125 733.875L736.965 659.715L943.995 455.543C978.339 464.711 1014.33 465.869 1049.19 458.927C1084.06 451.986 1116.86 437.131 1145.07 415.508C1173.29 393.885 1196.16 366.071 1211.92 334.211C1227.69 302.351 1235.92 267.296 1236 231.75C1236 210.969 1233.3 190.807 1228.12 171.726L1062.81 337.119L927 309L898.881 173.271L1064.27 7.87902C1024.93 -2.6995 983.492 -2.71925 944.138 7.82177C904.784 18.3628 868.904 39.092 840.116 67.92C811.327 96.748 790.646 132.656 780.159 172.024C769.671 211.392 769.748 252.83 780.38 292.159L576.44 499.035L370.259 293.009C355.771 278.525 347.629 258.879 347.625 238.393V232.908C347.626 220.607 344.69 208.483 339.06 197.546C333.43 186.609 325.269 177.174 315.257 170.027L77.25 -0.000482954ZM822.404 822.403C825.991 818.806 830.254 815.952 834.946 814.005C839.639 812.058 844.669 811.056 849.75 811.056C854.831 811.056 859.861 812.058 864.554 814.005C869.246 815.952 873.509 818.806 877.096 822.403L1102.2 1047.59C1109.24 1054.87 1113.13 1064.63 1113.04 1074.76C1112.96 1084.88 1108.89 1094.57 1101.73 1101.73C1094.57 1108.89 1084.88 1112.96 1074.76 1113.04C1064.63 1113.13 1054.87 1109.24 1047.59 1102.2L822.404 877.096C818.806 873.508 815.953 869.246 814.005 864.553C812.058 859.861 811.056 854.83 811.056 849.75C811.056 844.669 812.058 839.638 814.005 834.946C815.953 830.253 818.806 825.991 822.404 822.403ZM231.75 849.75L268.135 868.444L309 870.453L331.171 904.829L365.547 927L367.555 967.865L386.25 1004.25L367.555 1040.63L365.547 1081.5L331.171 1103.67L309 1138.05L268.135 1140.06L231.75 1158.75L195.365 1140.06L154.5 1138.05L132.329 1103.67L97.953 1081.5L95.9445 1040.63L77.25 1004.25L95.9445 967.865L97.953 927L132.329 904.829L154.5 870.453L195.365 868.444L231.75 849.75Z" fill="#00ADB5"/>
</g>
<defs>
<clipPath id="clip0_30_2">
<rect width="1236" height="1236" fill="white"/>
</clipPath>
</defs>
</svg>
